<svg version="1" xmlns="http://www.w3.org/2000/svg" width="682.667" height="682.667" viewBox="0 0 512.000000 512.000000"><path d="M48 256v256h416V0H48v256zm400 0v240H64V16h384v240z"/><path d="M96 128v96h320V32H96v96zm96-16v48h64v32h-96V64h32v48zm160-32v16h-32v96h-32V96h-32V64h96v16zM96 264v8h208v-16H96v8zM336 264v8h80v-16h-80v8zM96 312v24h48v-48H96v24zM160 296v8h144v-16H160v8zM336 296v8h16v-16h-16v8zM368 296v8h48v-16h-48v8zM160 328v8h144v-16H160v8zM336 328v8h16v-16h-16v8zM368 328v8h48v-16h-48v8zM160 360v8h144v-16H160v8zM336 360v8h16v-16h-16v8zM368 360v8h48v-16h-48v8zM160 392v8h144v-16H160v8zM336 392v8h16v-16h-16v8zM368 392v8h48v-16h-48v8zM160 424v8h144v-16H160v8zM336 424v8h16v-16h-16v8zM368 424v8h48v-16h-48v8zM96 472v8h320v-16H96v8z"/></svg>