<svg id="svg" version="1.1" xmlns="http://www.w3.org/2000/svg" xmlns:xlink="http://www.w3.org/1999/xlink" width="400" height="400" viewBox="0, 0, 400,400"><g id="svgg"><path id="path0" d="M75.200 100.000 L 75.200 174.800 200.000 174.800 L 324.800 174.800 324.800 100.000 L 324.800 25.200 200.000 25.200 L 75.200 25.200 75.200 100.000 M150.000 87.397 L 150.000 124.794 174.900 124.897 L 199.800 125.000 199.906 137.502 L 200.011 150.004 162.506 149.902 L 125.000 149.800 124.897 100.400 C 124.840 73.230,124.880 50.775,124.985 50.500 C 125.131 50.115,128.026 50.000,137.587 50.000 L 150.000 50.000 150.000 87.397 M275.000 62.600 L 275.000 75.000 262.500 75.106 L 250.000 75.211 250.000 112.611 L 250.000 150.011 237.500 149.906 L 225.000 149.800 224.898 112.506 L 224.796 75.212 212.498 75.106 L 200.200 75.000 200.094 62.498 L 199.989 49.996 237.494 50.098 L 275.000 50.200 275.000 62.600 " stroke="none" fill="#04acf4" fill-rule="evenodd"></path><path id="path1" d="M50.099 100.100 L 50.198 187.800 50.300 100.300 L 50.402 12.800 200.000 12.800 L 349.598 12.800 349.700 100.100 L 349.802 187.400 349.901 99.900 L 350.000 12.400 200.000 12.400 L 50.000 12.400 50.099 100.100 M74.985 25.299 C 74.880 25.575,74.841 59.370,74.897 100.400 L 75.000 175.000 200.000 175.000 L 325.000 175.000 325.000 100.000 L 325.000 25.000 200.088 24.899 C 100.368 24.819,75.137 24.900,74.985 25.299 M324.800 100.000 L 324.800 174.800 200.000 174.800 L 75.200 174.800 75.200 100.000 L 75.200 25.200 200.000 25.200 L 324.800 25.200 324.800 100.000 M124.994 100.000 C 124.994 127.390,125.042 138.595,125.100 124.900 C 125.158 111.205,125.158 88.795,125.100 75.100 C 125.042 61.405,124.994 72.610,124.994 100.000 M274.894 62.494 L 274.800 74.788 262.500 74.900 L 250.200 75.012 262.513 75.106 C 272.120 75.179,274.868 75.089,275.019 74.696 C 275.125 74.418,275.162 68.793,275.100 62.196 L 274.988 50.200 274.894 62.494 M212.498 75.097 L 224.796 75.212 224.901 112.306 L 225.006 149.400 225.003 112.200 L 225.000 75.000 212.600 74.991 L 200.200 74.982 212.498 75.097 M162.729 125.100 C 169.620 125.161,180.780 125.161,187.529 125.100 C 194.278 125.038,188.640 124.988,175.000 124.988 C 161.360 124.988,155.838 125.038,162.729 125.100 M74.984 206.300 L 75.000 212.600 156.200 212.600 L 237.400 212.600 237.416 206.200 L 237.432 199.800 237.306 206.100 L 237.180 212.400 156.200 212.400 L 75.220 212.400 75.094 206.200 L 74.969 199.999 74.984 206.300 M262.584 206.300 L 262.600 212.600 293.800 212.600 L 325.000 212.600 325.016 206.200 L 325.032 199.800 324.906 206.100 L 324.780 212.400 293.800 212.400 L 262.820 212.400 262.694 206.200 L 262.569 199.999 262.584 206.300 M75.200 243.800 L 75.200 262.400 93.800 262.400 L 112.400 262.400 112.400 243.800 L 112.400 225.200 93.800 225.200 L 75.200 225.200 75.200 243.800 M125.200 231.401 L 125.200 237.603 181.300 237.501 L 237.400 237.400 237.510 231.300 L 237.621 225.200 181.410 225.200 L 125.200 225.200 125.200 231.401 M262.800 231.400 L 262.800 237.600 268.800 237.600 L 274.800 237.600 274.800 231.400 L 274.800 225.200 268.800 225.200 L 262.800 225.200 262.800 231.400 M287.690 231.300 L 287.800 237.400 306.300 237.504 L 324.800 237.608 324.800 231.404 L 324.800 225.200 306.190 225.200 L 287.579 225.200 287.690 231.300 M125.200 256.199 L 125.200 262.400 181.410 262.400 L 237.621 262.400 237.510 256.300 L 237.400 250.200 181.300 250.099 L 125.200 249.997 125.200 256.199 M262.800 256.200 L 262.800 262.400 268.800 262.400 L 274.800 262.400 274.800 256.200 L 274.800 250.000 268.800 250.000 L 262.800 250.000 262.800 256.200 M287.600 256.200 L 287.600 262.400 306.200 262.400 L 324.800 262.400 324.800 256.200 L 324.800 250.000 306.200 250.000 L 287.600 250.000 287.600 256.200 M125.200 281.401 L 125.200 287.603 181.300 287.501 L 237.400 287.400 237.510 281.300 L 237.621 275.200 181.410 275.200 L 125.200 275.200 125.200 281.401 M262.800 281.400 L 262.800 287.600 268.800 287.600 L 274.800 287.600 274.800 281.400 L 274.800 275.200 268.800 275.200 L 262.800 275.200 262.800 281.400 M287.690 281.300 L 287.800 287.400 306.300 287.504 L 324.800 287.608 324.800 281.404 L 324.800 275.200 306.190 275.200 L 287.579 275.200 287.690 281.300 M125.200 306.199 L 125.200 312.400 181.410 312.400 L 237.621 312.400 237.510 306.300 L 237.400 300.200 181.300 300.099 L 125.200 299.997 125.200 306.199 M262.800 306.200 L 262.800 312.400 268.800 312.400 L 274.800 312.400 274.800 306.200 L 274.800 300.000 268.800 300.000 L 262.800 300.000 262.800 306.200 M287.600 306.200 L 287.600 312.400 306.200 312.400 L 324.800 312.400 324.800 306.200 L 324.800 300.000 306.200 300.000 L 287.600 300.000 287.600 306.200 M125.200 331.401 L 125.200 337.603 181.300 337.501 L 237.400 337.400 237.510 331.300 L 237.621 325.200 181.410 325.200 L 125.200 325.200 125.200 331.401 M262.800 331.400 L 262.800 337.600 268.800 337.600 L 274.800 337.600 274.800 331.400 L 274.800 325.200 268.800 325.200 L 262.800 325.200 262.800 331.400 M287.690 331.300 L 287.800 337.400 306.300 337.504 L 324.800 337.608 324.800 331.404 L 324.800 325.200 306.190 325.200 L 287.579 325.200 287.690 331.300 M50.096 368.700 L 50.000 387.600 200.000 387.600 L 350.000 387.600 349.904 368.900 L 349.808 350.200 349.700 368.700 L 349.592 387.200 200.000 387.200 L 50.408 387.200 50.300 368.500 L 50.192 349.800 50.096 368.700 M75.200 368.600 L 75.200 374.800 200.000 374.800 L 324.800 374.800 324.800 368.600 L 324.800 362.400 200.000 362.400 L 75.200 362.400 75.200 368.600 " stroke="none" fill="#bcbcbc" fill-rule="evenodd"></path><path id="path2" d="M50.227 167.114 C 50.065 251.987,50.064 336.227,50.226 354.314 L 50.520 387.200 200.000 387.200 L 349.481 387.200 349.775 354.530 C 349.937 336.561,349.936 252.321,349.774 167.330 L 349.480 12.800 200.000 12.800 L 50.521 12.800 50.227 167.114 M325.000 100.000 L 325.000 175.000 200.000 175.000 L 75.000 175.000 74.897 100.400 C 74.841 59.370,74.880 25.575,74.985 25.299 C 75.137 24.900,100.368 24.819,200.088 24.899 L 325.000 25.000 325.000 100.000 M125.200 100.000 L 125.200 150.000 162.600 150.000 L 200.000 150.000 200.000 137.603 L 200.000 125.206 175.100 125.103 L 150.200 125.000 150.098 87.500 L 149.996 50.000 137.598 50.000 L 125.200 50.000 125.200 100.000 M200.267 50.267 C 200.120 50.413,200.000 55.991,200.000 62.661 L 200.000 74.789 212.500 74.894 L 225.000 75.000 225.102 112.500 L 225.204 150.000 237.600 150.000 L 249.996 150.000 250.098 112.500 L 250.200 75.000 262.500 74.894 L 274.800 74.788 274.800 62.394 L 274.800 50.000 237.667 50.000 C 217.243 50.000,200.413 50.120,200.267 50.267 M237.510 206.300 L 237.400 212.600 156.200 212.600 L 75.000 212.600 74.890 206.300 L 74.780 200.000 156.200 200.000 L 237.620 200.000 237.510 206.300 M325.110 206.300 L 325.000 212.600 293.800 212.600 L 262.600 212.600 262.490 206.300 L 262.380 200.000 293.800 200.000 L 325.220 200.000 325.110 206.300 M112.400 243.800 L 112.400 262.400 93.800 262.400 L 75.200 262.400 75.200 243.800 L 75.200 225.200 93.800 225.200 L 112.400 225.200 112.400 243.800 M237.510 231.300 L 237.400 237.400 181.300 237.501 L 125.200 237.603 125.200 231.401 L 125.200 225.200 181.410 225.200 L 237.621 225.200 237.510 231.300 M274.800 231.400 L 274.800 237.600 268.800 237.600 L 262.800 237.600 262.800 231.400 L 262.800 225.200 268.800 225.200 L 274.800 225.200 274.800 231.400 M324.800 231.404 L 324.800 237.608 306.300 237.504 L 287.800 237.400 287.690 231.300 L 287.579 225.200 306.190 225.200 L 324.800 225.200 324.800 231.404 M237.510 256.300 L 237.621 262.400 181.410 262.400 L 125.200 262.400 125.200 256.199 L 125.200 249.997 181.300 250.099 L 237.400 250.200 237.510 256.300 M274.800 256.200 L 274.800 262.400 268.800 262.400 L 262.800 262.400 262.800 256.200 L 262.800 250.000 268.800 250.000 L 274.800 250.000 274.800 256.200 M324.800 256.200 L 324.800 262.400 306.200 262.400 L 287.600 262.400 287.600 256.200 L 287.600 250.000 306.200 250.000 L 324.800 250.000 324.800 256.200 M237.510 281.300 L 237.400 287.400 181.300 287.501 L 125.200 287.603 125.200 281.401 L 125.200 275.200 181.410 275.200 L 237.621 275.200 237.510 281.300 M274.800 281.400 L 274.800 287.600 268.800 287.600 L 262.800 287.600 262.800 281.400 L 262.800 275.200 268.800 275.200 L 274.800 275.200 274.800 281.400 M324.800 281.404 L 324.800 287.608 306.300 287.504 L 287.800 287.400 287.690 281.300 L 287.579 275.200 306.190 275.200 L 324.800 275.200 324.800 281.404 M237.510 306.300 L 237.621 312.400 181.410 312.400 L 125.200 312.400 125.200 306.199 L 125.200 299.997 181.300 300.099 L 237.400 300.200 237.510 306.300 M274.800 306.200 L 274.800 312.400 268.800 312.400 L 262.800 312.400 262.800 306.200 L 262.800 300.000 268.800 300.000 L 274.800 300.000 274.800 306.200 M324.800 306.200 L 324.800 312.400 306.200 312.400 L 287.600 312.400 287.600 306.200 L 287.600 300.000 306.200 300.000 L 324.800 300.000 324.800 306.200 M237.510 331.300 L 237.400 337.400 181.300 337.501 L 125.200 337.603 125.200 331.401 L 125.200 325.200 181.410 325.200 L 237.621 325.200 237.510 331.300 M274.800 331.400 L 274.800 337.600 268.800 337.600 L 262.800 337.600 262.800 331.400 L 262.800 325.200 268.800 325.200 L 274.800 325.200 274.800 331.400 M324.800 331.404 L 324.800 337.608 306.300 337.504 L 287.800 337.400 287.690 331.300 L 287.579 325.200 306.190 325.200 L 324.800 325.200 324.800 331.404 M324.800 368.600 L 324.800 374.800 200.000 374.800 L 75.200 374.800 75.200 368.600 L 75.200 362.400 200.000 362.400 L 324.800 362.400 324.800 368.600 " stroke="none" fill="#ececec" fill-rule="evenodd"></path><path id="path3" d="M37.200 200.000 L 37.200 400.000 200.000 400.000 L 362.800 400.000 362.800 200.000 L 362.800 0.000 200.000 0.000 L 37.200 0.000 37.200 200.000 M350.000 200.000 L 350.000 387.600 200.000 387.600 L 50.000 387.600 50.000 200.000 L 50.000 12.400 200.000 12.400 L 350.000 12.400 350.000 200.000 M75.200 206.200 L 75.200 212.400 156.200 212.400 L 237.200 212.400 237.200 206.200 L 237.200 200.000 156.200 200.000 L 75.200 200.000 75.200 206.200 M262.800 206.200 L 262.800 212.400 293.800 212.400 L 324.800 212.400 324.800 206.200 L 324.800 200.000 293.800 200.000 L 262.800 200.000 262.800 206.200 " stroke="none" fill="#646464" fill-rule="evenodd"></path></g></svg>