<svg version="1" xmlns="http://www.w3.org/2000/svg" width="682.667" height="682.667" viewBox="0 0 512.000000 512.000000"><path d="M48 256v256h416V0H48v256zm400 0v240H64V16h384v240z"/><path d="M96 128v80h320V48H96v80zm80-8v40h64v16h-80V80h16v40zm176-32v8h-32v80h-16V96h-32V80h80v8zM96 248v8h208v-16H96v8zM336 248v8h80v-16h-80v8zM96 296v24h48v-48H96v24zM160 280v8h144v-16H160v8zM336 280v8h16v-16h-16v8zM368 280v8h48v-16h-48v8zM160 312v8h144v-16H160v8zM336 312v8h16v-16h-16v8zM368 312v8h48v-16h-48v8zM160 344v8h144v-16H160v8zM336 344v8h16v-16h-16v8zM368 344v8h48v-16h-48v8zM160 376v8h144v-16H160v8zM336 376v8h16v-16h-16v8zM368 376v8h48v-16h-48v8zM160 408v8h144v-16H160v8zM336 408v8h16v-16h-16v8zM368 408v8h48v-16h-48v8zM96 456v8h320v-16H96v8z"/></svg>