<svg version="1" xmlns="http://www.w3.org/2000/svg" width="682.667" height="682.667" viewBox="0 0 512.000000 512.000000"><path d="M80 256v208h352V48H80v208zm336 0v192H96V64h320v192z"/><path d="M128 144v48h256V96H128v48zm80-8v24h32v16h-48v-64h16v24zm112-16v8h-16v48h-16v-48h-16v-16h48v8zM128 232v8h176v-16H128v8zM336 232v8h48v-16h-48v8zM128 272v16h32v-32h-32v16zM176 264v8h128v-16H176v8zM336 264v8h48v-16h-48v8zM176 296v8h128v-16H176v8zM336 296v8h48v-16h-48v8zM176 328v8h128v-16H176v8zM336 328v8h48v-16h-48v8zM176 360v8h128v-16H176v8zM336 360v8h48v-16h-48v8zM176 392v8h128v-16H176v8zM336 392v8h48v-16h-48v8zM128 424v8h256v-16H128v8z"/></svg>