<?xml version="1.0" standalone="no"?>
<!DOCTYPE svg PUBLIC "-//W3C//DTD SVG 20010904//EN"
 "http://www.w3.org/TR/2001/REC-SVG-20010904/DTD/svg10.dtd">
<svg version="1.0" xmlns="http://www.w3.org/2000/svg"
 width="512.000000pt" height="512.000000pt" viewBox="0 0 512.000000 512.000000"
 preserveAspectRatio="xMidYMid meet">
<metadata>
Created by potrace 1.14, written by Peter Selinger 2001-2017
</metadata>
<g transform="translate(0.000000,512.000000) scale(0.100000,-0.100000)"
fill="#000000" stroke="none">
<path d="M480 2560 l0 -2560 2080 0 2080 0 0 2560 0 2560 -2080 0 -2080 0 0
-2560z m4000 0 l0 -2400 -1920 0 -1920 0 0 2400 0 2400 1920 0 1920 0 0 -2400z"/>
<path d="M960 3840 l0 -960 1600 0 1600 0 0 960 0 960 -1600 0 -1600 0 0 -960z
m960 160 l0 -480 320 0 320 0 0 -160 0 -160 -480 0 -480 0 0 640 0 640 160 0
160 0 0 -480z m1600 320 l0 -160 -160 0 -160 0 0 -480 0 -480 -160 0 -160 0 0
480 0 480 -160 0 -160 0 0 160 0 160 480 0 480 0 0 -160z"/>
<path d="M960 2480 l0 -80 1040 0 1040 0 0 80 0 80 -1040 0 -1040 0 0 -80z"/>
<path d="M3360 2480 l0 -80 400 0 400 0 0 80 0 80 -400 0 -400 0 0 -80z"/>
<path d="M960 2000 l0 -240 240 0 240 0 0 240 0 240 -240 0 -240 0 0 -240z"/>
<path d="M1600 2160 l0 -80 720 0 720 0 0 80 0 80 -720 0 -720 0 0 -80z"/>
<path d="M3360 2160 l0 -80 80 0 80 0 0 80 0 80 -80 0 -80 0 0 -80z"/>
<path d="M3680 2160 l0 -80 240 0 240 0 0 80 0 80 -240 0 -240 0 0 -80z"/>
<path d="M1600 1840 l0 -80 720 0 720 0 0 80 0 80 -720 0 -720 0 0 -80z"/>
<path d="M3360 1840 l0 -80 80 0 80 0 0 80 0 80 -80 0 -80 0 0 -80z"/>
<path d="M3680 1840 l0 -80 240 0 240 0 0 80 0 80 -240 0 -240 0 0 -80z"/>
<path d="M1600 1520 l0 -80 720 0 720 0 0 80 0 80 -720 0 -720 0 0 -80z"/>
<path d="M3360 1520 l0 -80 80 0 80 0 0 80 0 80 -80 0 -80 0 0 -80z"/>
<path d="M3680 1520 l0 -80 240 0 240 0 0 80 0 80 -240 0 -240 0 0 -80z"/>
<path d="M1600 1200 l0 -80 720 0 720 0 0 80 0 80 -720 0 -720 0 0 -80z"/>
<path d="M3360 1200 l0 -80 80 0 80 0 0 80 0 80 -80 0 -80 0 0 -80z"/>
<path d="M3680 1200 l0 -80 240 0 240 0 0 80 0 80 -240 0 -240 0 0 -80z"/>
<path d="M1600 880 l0 -80 720 0 720 0 0 80 0 80 -720 0 -720 0 0 -80z"/>
<path d="M3360 880 l0 -80 80 0 80 0 0 80 0 80 -80 0 -80 0 0 -80z"/>
<path d="M3680 880 l0 -80 240 0 240 0 0 80 0 80 -240 0 -240 0 0 -80z"/>
<path d="M960 400 l0 -80 1600 0 1600 0 0 80 0 80 -1600 0 -1600 0 0 -80z"/>
</g>
</svg>
